solid OpenSCAD_Model
  facet normal 1 -0 0
    outer loop
      vertex 30 -15 15
      vertex 30 15 -15
      vertex 30 15 15
    endloop
  endfacet
  facet normal 1 0 0
    outer loop
      vertex 30 15 -15
      vertex 30 -15 15
      vertex 30 -15 -15
    endloop
  endfacet
  facet normal -0 0 1
    outer loop
      vertex -30 12.5 15
      vertex 20 -12.5 15
      vertex 20 12.5 15
    endloop
  endfacet
  facet normal 0 0 1
    outer loop
      vertex 20 -12.5 15
      vertex -30 12.5 15
      vertex -30 -12.5 15
    endloop
  endfacet
  facet normal 0 0 1
    outer loop
      vertex 20 12.5 15
      vertex 30 15 15
      vertex 20 13.5 15
    endloop
  endfacet
  facet normal -0 0 1
    outer loop
      vertex -25 15 15
      vertex 20 13.5 15
      vertex 30 15 15
    endloop
  endfacet
  facet normal 0 0 1
    outer loop
      vertex 20 13.5 15
      vertex -25 15 15
      vertex -25 13.5 15
    endloop
  endfacet
  facet normal 0 0 1
    outer loop
      vertex 30 15 15
      vertex 20 12.5 15
      vertex 30 -15 15
    endloop
  endfacet
  facet normal -0 0 1
    outer loop
      vertex 20 -12.5 15
      vertex 30 -15 15
      vertex 20 12.5 15
    endloop
  endfacet
  facet normal -0 0 1
    outer loop
      vertex 20 -13.5 15
      vertex 30 -15 15
      vertex 20 -12.5 15
    endloop
  endfacet
  facet normal 0 0 1
    outer loop
      vertex -25 -15 15
      vertex 20 -13.5 15
      vertex -25 -13.5 15
    endloop
  endfacet
  facet normal 0 0 1
    outer loop
      vertex 20 -13.5 15
      vertex -25 -15 15
      vertex 30 -15 15
    endloop
  endfacet
  facet normal 0 0 -1
    outer loop
      vertex -30 -12.5 -15
      vertex 20 12.5 -15
      vertex 20 -12.5 -15
    endloop
  endfacet
  facet normal -0 0 -1
    outer loop
      vertex 20 12.5 -15
      vertex -30 -12.5 -15
      vertex -30 12.5 -15
    endloop
  endfacet
  facet normal 0 0 -1
    outer loop
      vertex 20 -12.5 -15
      vertex 30 -15 -15
      vertex 20 -13.5 -15
    endloop
  endfacet
  facet normal 0 0 -1
    outer loop
      vertex -25 -15 -15
      vertex 20 -13.5 -15
      vertex 30 -15 -15
    endloop
  endfacet
  facet normal -0 0 -1
    outer loop
      vertex 20 -13.5 -15
      vertex -25 -15 -15
      vertex -25 -13.5 -15
    endloop
  endfacet
  facet normal 0 0 -1
    outer loop
      vertex 30 -15 -15
      vertex 20 -12.5 -15
      vertex 30 15 -15
    endloop
  endfacet
  facet normal 0 0 -1
    outer loop
      vertex 20 12.5 -15
      vertex 30 15 -15
      vertex 20 -12.5 -15
    endloop
  endfacet
  facet normal 0 0 -1
    outer loop
      vertex 20 13.5 -15
      vertex 30 15 -15
      vertex 20 12.5 -15
    endloop
  endfacet
  facet normal 0 0 -1
    outer loop
      vertex -25 15 -15
      vertex 20 13.5 -15
      vertex -25 13.5 -15
    endloop
  endfacet
  facet normal 0 0 -1
    outer loop
      vertex 20 13.5 -15
      vertex -25 15 -15
      vertex 30 15 -15
    endloop
  endfacet
  facet normal -1 0 0
    outer loop
      vertex -30 -12.5 -15
      vertex -30 12.5 15
      vertex -30 12.5 -15
    endloop
  endfacet
  facet normal -1 -0 0
    outer loop
      vertex -30 12.5 15
      vertex -30 -12.5 -15
      vertex -30 -12.5 15
    endloop
  endfacet
  facet normal 0 1 -0
    outer loop
      vertex 30 15 -15
      vertex -25 15 15
      vertex 30 15 15
    endloop
  endfacet
  facet normal 0 1 0
    outer loop
      vertex -25 15 15
      vertex 30 15 -15
      vertex -25 15 -15
    endloop
  endfacet
  facet normal 0 -1 0
    outer loop
      vertex -25 -15 -15
      vertex 30 -15 15
      vertex -25 -15 15
    endloop
  endfacet
  facet normal 0 -1 -0
    outer loop
      vertex 30 -15 15
      vertex -25 -15 -15
      vertex 30 -15 -15
    endloop
  endfacet
  facet normal -1 0 0
    outer loop
      vertex 20 12.5 -15
      vertex 20 13.5 15
      vertex 20 13.5 -15
    endloop
  endfacet
  facet normal -1 -0 0
    outer loop
      vertex 20 13.5 15
      vertex 20 12.5 -15
      vertex 20 12.5 15
    endloop
  endfacet
  facet normal 0 -1 0
    outer loop
      vertex -25 13.5 -15
      vertex 20 13.5 15
      vertex -25 13.5 15
    endloop
  endfacet
  facet normal 0 -1 -0
    outer loop
      vertex 20 13.5 15
      vertex -25 13.5 -15
      vertex 20 13.5 -15
    endloop
  endfacet
  facet normal 0 1 -0
    outer loop
      vertex 20 12.5 -15
      vertex -30 12.5 15
      vertex 20 12.5 15
    endloop
  endfacet
  facet normal 0 1 0
    outer loop
      vertex -30 12.5 15
      vertex 20 12.5 -15
      vertex -30 12.5 -15
    endloop
  endfacet
  facet normal -1 0 0
    outer loop
      vertex 20 -13.5 -15
      vertex 20 -12.5 15
      vertex 20 -12.5 -15
    endloop
  endfacet
  facet normal -1 -0 0
    outer loop
      vertex 20 -12.5 15
      vertex 20 -13.5 -15
      vertex 20 -13.5 15
    endloop
  endfacet
  facet normal 0 -1 0
    outer loop
      vertex -30 -12.5 -15
      vertex 20 -12.5 15
      vertex -30 -12.5 15
    endloop
  endfacet
  facet normal 0 -1 -0
    outer loop
      vertex 20 -12.5 15
      vertex -30 -12.5 -15
      vertex 20 -12.5 -15
    endloop
  endfacet
  facet normal 0 1 -0
    outer loop
      vertex 20 -13.5 -15
      vertex -25 -13.5 15
      vertex 20 -13.5 15
    endloop
  endfacet
  facet normal 0 1 0
    outer loop
      vertex -25 -13.5 15
      vertex 20 -13.5 -15
      vertex -25 -13.5 -15
    endloop
  endfacet
  facet normal -1 0 0
    outer loop
      vertex -25 -15 -15
      vertex -25 -13.5 15
      vertex -25 -13.5 -15
    endloop
  endfacet
  facet normal -1 -0 0
    outer loop
      vertex -25 -13.5 15
      vertex -25 -15 -15
      vertex -25 -15 15
    endloop
  endfacet
  facet normal -1 0 0
    outer loop
      vertex -25 13.5 -15
      vertex -25 15 15
      vertex -25 15 -15
    endloop
  endfacet
  facet normal -1 -0 0
    outer loop
      vertex -25 15 15
      vertex -25 13.5 -15
      vertex -25 13.5 15
    endloop
  endfacet
endsolid OpenSCAD_Model
